<mxfile host="65bd71144e" modified="2021-01-20T22:02:43.061Z" agent="5.0 (Macintosh; Intel Mac OS X 10_13_6) AppleWebKit/537.36 (KHTML, like Gecko) Code/1.52.1 Chrome/83.0.4103.122 Electron/9.3.5 Safari/537.36" version="13.10.0" etag="T5-3hNkq89zk4MY_AeF6" type="embed">
    <diagram id="okz5DBvqT9m_GciBTbUi" name="Page-1">
        <mxGraphModel dx="634" dy="964" grid="1" gridSize="10" guides="1" tooltips="1" connect="1" arrows="1" fold="1" page="1" pageScale="1" pageWidth="850" pageHeight="1100" math="0" shadow="0">
            <root>
                <mxCell id="0"/>
                <mxCell id="1" parent="0"/>
                <mxCell id="2" value="&lt;p style=&quot;margin: 0px ; margin-top: 6px ; text-align: center&quot;&gt;users&lt;/p&gt;&lt;hr&gt;&lt;p style=&quot;margin: 0px ; margin-left: 8px&quot;&gt;+ id: int primary key&lt;br&gt;+ username: text&lt;/p&gt;&lt;p style=&quot;margin: 0px ; margin-left: 8px&quot;&gt;+ password: text&lt;/p&gt;&lt;p style=&quot;margin: 0px ; margin-left: 8px&quot;&gt;+role: text&lt;/p&gt;" style="align=left;overflow=fill;html=1;dropTarget=0;" vertex="1" parent="1">
                    <mxGeometry x="280" y="200" width="180" height="100" as="geometry"/>
                </mxCell>
                <mxCell id="3" value="" style="shape=component;jettyWidth=8;jettyHeight=4;" vertex="1" parent="2">
                    <mxGeometry x="1" width="20" height="20" relative="1" as="geometry">
                        <mxPoint x="-24" y="4" as="offset"/>
                    </mxGeometry>
                </mxCell>
            </root>
        </mxGraphModel>
    </diagram>
</mxfile>